# xmcd
#
# Track frame offsets:
# 150
# 16660
# 29000
# 41250
# 55890
# 73220
# 86152
# 97020
# 109025
# 124130
# 136720
# 148465
# 164035
# 180430
# 197755
# 211610
# 225490
# 240470
# 256905
# 270890
#
# Disc length: 3812 seconds
#
#
# Revision: 0
# Processed by: cddbd v1.5.1PL0 Copyright (c) Steve Scherf et al.
# Submitted via: FreeRIP 2.942 
#
DISCID=140ee214
DTITLE=Valderi e Mizael - 20 Preferidas
DYEAR=1996
DGENRE=Sertanejo
TTITLE0=Nem ata, nem desata
TTITLE1=Me esborracho de rir
TTITLE2=Triste vanerão
TTITLE3=Mentira
TTITLE4=Amor de primavera
TTITLE5=Sete léguas (siete leguas)
TTITLE6=O espelho e eu
TTITLE7=Casa sertaneja
TTITLE8=A flor da pele
TTITLE9=Perdidos na noite
TTITLE10=Espinho na cama
TTITLE11=Caminhoneiro (Yor body is an outlaw)
TTITLE12=Casinha de praia
TTITLE13=Meu primeiro amor
TTITLE14=Explode coração
TTITLE15=Buscando você
TTITLE16=Metade de mim
TTITLE17=Minha decisão
TTITLE18=Abismo cruel
TTITLE19=Necessito amor
EXTD=
EXTT0=
EXTT1=
EXTT2=
EXTT3=
EXTT4=
EXTT5=
EXTT6=
EXTT7=
EXTT8=
EXTT9=
EXTT10=
EXTT11=
EXTT12=
EXTT13=
EXTT14=
EXTT15=
EXTT16=
EXTT17=
EXTT18=
EXTT19=
PLAYORDER=
